
<svg height="24" width="24" version="1.1" id="Layer_1" xmlns="http://www.w3.org/2000/svg" xmlns:xlink="http://www.w3.org/1999/xlink" 
	 viewBox="0 0 24 24" xml:space="preserve">
<circle style="fill:#fff;" cx="12" cy="8" r="7"/>
<circle style="fill:#fff;" cx="7" cy="15" r="7"/>
<circle style="fill:#fff;" cx="17" cy="15" r="7"/>
<path style="fill:#fff;" d="M255.979,209.068c17.354,12.762,32.417,29.232,43.877,49.082c11.46,19.85,18.193,41.13,20.568,62.54
	c51.474-22.563,88.845-71.319,95.255-129.41C362.166,167.786,301.256,175.772,255.979,209.068z"/>
<path style="fill:#fff;" d="M191.534,320.69c2.375-21.41,9.107-42.69,20.568-62.54c11.46-19.85,26.523-36.32,43.877-49.082
	c-45.277-33.295-106.187-41.282-159.7-17.788C102.689,249.371,140.062,298.127,191.534,320.69z"/>
<path style="fill:#fff;" d="M320.424,320.69c-19.729,8.648-41.523,13.458-64.445,13.458s-44.715-4.81-64.445-13.458
	c-6.197,55.858,17.341,112.601,64.445,147.199C303.083,433.291,326.621,376.548,320.424,320.69z"/>
<path style="fill:#fff;" d="M255.979,209.068c-17.354,12.762-32.417,29.232-43.877,49.082
	c-11.46,19.85-18.193,41.13-20.568,62.54c19.729,8.648,41.523,13.458,64.445,13.458s44.715-4.81,64.445-13.458
	c-2.375-21.41-9.107-42.69-20.568-62.54C288.396,238.3,273.333,221.83,255.979,209.068z"/>
</svg>